<svg xmlns="http://www.w3.org/2000/svg" xmlns:xlink="http://www.w3.org/1999/xlink" width="1024" zoomAndPan="magnify" viewBox="0 0 768 767.999994" height="1024" preserveAspectRatio="xMidYMid meet" version="1.0"><path fill="#525252" d="M 382.796875 2.089844 L 403.292969 40.585938 C 407.902344 47.6875 412.894531 53.976562 418.773438 59.832031 C 435.933594 76.992188 452.230469 94.96875 466.871094 114.214844 C 501.597656 159.816406 525.023438 210.457031 541.75 265.222656 C 551.78125 298.679688 557.230469 333 557.636719 367.703125 C 559.316406 471.457031 523.75 560.542969 452.039062 634.582031 C 440.324219 646.296875 427.796875 657.144531 414.359375 666.792969 C 407.253906 666.792969 403.894531 661.34375 400.964844 656.328125 C 395.519531 647.136719 392.183594 636.648438 390.5 626.207031 C 387.980469 613.65625 386.324219 601.105469 387.140625 588.144531 L 387.140625 582.289062 C 386.566406 581.039062 380.300781 5.039062 382.796875 2.089844 Z M 382.796875 2.089844 " fill-opacity="1" fill-rule="nonzero"/><path fill="#6b6b6b" d="M 382.796875 0.816406 C 381.957031 -0.863281 381.117188 0.40625 380.277344 1.222656 C 380.6875 9.625 377.757812 17.113281 373.175781 24.265625 C 368.132812 31.367188 361.460938 36.816406 354.765625 42.671875 C 317.566406 74.878906 288.285156 113.785156 264.839844 157.296875 C 233.636719 215.855469 217.558594 278.617188 212.996094 344.6875 C 210.910156 368.519531 220.535156 452.617188 228.046875 476.878906 C 248.542969 541.296875 285.359375 595.273438 333.046875 642.121094 C 344.757812 653.398438 357.285156 663.863281 370.246094 673.921875 C 374.015625 673.921875 374.421875 670.558594 375.285156 668.0625 C 376.941406 662.714844 378.195312 657.277344 379.054688 651.742188 L 387.453125 589.007812 Z M 382.796875 0.816406 " fill-opacity="1" fill-rule="nonzero"/><path fill="#c2bfbf" d="M 403.292969 692.28125 C 404.132812 682.679688 408.742188 674.710938 413.757812 666.769531 C 408.71875 664.679688 404.972656 660.527344 402.046875 655.894531 C 399.527344 651.71875 397.4375 646.703125 395.804688 642.097656 C 389.949219 624.527344 388.703125 606.097656 387.023438 588.144531 L 387.023438 577.273438 C 384.933594 578.953125 384.503906 593.160156 384.503906 595.273438 C 383.277344 614.269531 380.765625 633.09375 376.964844 651.742188 C 375.71875 659.28125 374.878906 666.792969 370.246094 673.488281 C 370.246094 674.328125 370.246094 675.167969 370.652344 676.417969 C 378.191406 698.59375 380.253906 721.175781 381.527344 744.191406 L 381.527344 752.59375 C 381.527344 762.625 381.117188 760.511719 389.445312 763.871094 C 392.804688 765.121094 396.550781 765.550781 399.910156 768.046875 C 402.429688 768.046875 402.839844 765.960938 402.839844 764.28125 L 401.589844 750.480469 L 401.589844 711.984375 C 401.183594 705.265625 402.429688 698.59375 403.269531 692.304688 Z M 403.292969 692.28125 " fill-opacity="1" fill-rule="nonzero"/></svg>